<svg width="1088" height="625" viewBox="0 0 1088 625" fill="none" xmlns="http://www.w3.org/2000/svg">
<g clip-path="url(#clip0_2_2)">
<path d="M792.99 426.242C692.551 347.142 676.542 199.971 757.225 97.5278C837.908 -4.91601 984.737 -23.8396 1085.18 55.2607L792.99 426.242Z" fill="url(#paint0_linear_2_2)"/>
<path d="M1001.03 199.074C1101.37 278.308 1117.19 425.499 1036.36 527.833C955.546 630.171 808.69 648.898 708.357 569.667L1001.03 199.074Z" fill="url(#paint1_linear_2_2)"/>
<path d="M363.438 0C530.921 0 666.689 139.911 666.689 312.5C666.689 485.088 530.921 625 363.438 625C362.666 625 361.894 624.986 361.123 624.981V0.0135634C361.894 0.00762347 362.666 0 363.438 0Z" fill="url(#paint2_linear_2_2)"/>
<path d="M143.523 129.63C229.267 178.693 287.047 271.058 287.047 376.921C287.047 482.787 229.267 575.148 143.523 624.213C57.7802 575.148 0 482.787 0 376.921C0 271.058 57.7802 178.693 143.523 129.63Z" fill="url(#paint3_linear_2_2)"/>
<path d="M208.34 62.5C208.34 97.0176 180.357 125 145.838 125C111.32 125 83.3362 97.0176 83.3362 62.5C83.3362 27.9822 111.32 0 145.838 0C180.357 0 208.34 27.9822 208.34 62.5Z" fill="url(#paint4_linear_2_2)"/>
</g>
<defs>
<linearGradient id="paint0_linear_2_2" x1="977.5" y1="-17" x2="716.5" y2="316" gradientUnits="userSpaceOnUse">
<stop stop-color="#FFD35D"/>
<stop offset="1" stop-color="#FEC52E"/>
</linearGradient>
<linearGradient id="paint1_linear_2_2" x1="1045.5" y1="237" x2="793.5" y2="577.5" gradientUnits="userSpaceOnUse">
<stop stop-color="#FFD460"/>
<stop offset="1" stop-color="#FEC52E"/>
</linearGradient>
<linearGradient id="paint2_linear_2_2" x1="513.906" y1="0" x2="514" y2="536" gradientUnits="userSpaceOnUse">
<stop stop-color="#FF9E4D"/>
<stop offset="0.980769" stop-color="#FE8724"/>
</linearGradient>
<linearGradient id="paint3_linear_2_2" x1="143.523" y1="129.63" x2="144" y2="530.5" gradientUnits="userSpaceOnUse">
<stop stop-color="#7AFF69"/>
<stop offset="1" stop-color="#61B856"/>
</linearGradient>
<linearGradient id="paint4_linear_2_2" x1="145.838" y1="0" x2="145.838" y2="125" gradientUnits="userSpaceOnUse">
<stop stop-color="#FF585E"/>
<stop offset="1" stop-color="#F1454B"/>
</linearGradient>
<clipPath id="clip0_2_2">
<rect width="1088" height="625" fill="white"/>
</clipPath>
</defs>
</svg>
