<svg width="996" height="572" viewBox="0 0 996 572" fill="none" xmlns="http://www.w3.org/2000/svg">
<path d="M359.093 29.9326C483.65 43.528 581.824 152.292 581.824 286C581.824 419.707 483.65 528.471 359.093 542.066V29.9326ZM131.389 152.159C193.494 193.856 234.278 264.661 234.278 344.958C234.278 425.256 193.495 496.059 131.39 537.757C69.2843 496.059 28.5 425.256 28.5 344.958C28.5001 264.662 69.284 193.856 131.389 152.159ZM919.703 223.989C979.626 289.103 984.737 391.54 926.382 465.406L926.381 465.407C868.029 539.276 767.161 558.05 689.907 514.878L919.703 223.989ZM715.593 106.895C773.847 32.9494 874.688 14.0396 951.999 57.1084L722.59 348.303C662.584 283.269 657.338 180.84 715.593 106.895ZM133.509 28.5C149.377 28.5002 162.227 41.3582 162.227 57.2002C162.226 73.042 149.377 85.9002 133.509 85.9004C132.808 85.9004 132.114 85.8735 131.426 85.8242L131.39 85.8037L131.36 85.8203C116.496 84.7221 104.791 72.3207 104.791 57.2002C104.791 41.3581 117.64 28.5 133.509 28.5Z" stroke="white" stroke-width="57"/>
</svg>
