<svg width="1001" height="1001" viewBox="0 0 1001 1001" fill="none" xmlns="http://www.w3.org/2000/svg">
<path d="M359.093 246.933C483.65 260.528 581.824 369.292 581.824 503C581.824 636.707 483.65 745.471 359.093 759.066V246.933ZM131.389 369.159C193.494 410.856 234.278 481.661 234.278 561.958C234.278 642.256 193.495 713.059 131.39 754.757C69.2843 713.059 28.5 642.256 28.5 561.958C28.5001 481.662 69.284 410.856 131.389 369.159ZM919.703 440.989C979.626 506.103 984.737 608.54 926.382 682.406L926.381 682.407C868.029 756.276 767.161 775.05 689.907 731.878L919.703 440.989ZM715.593 323.895C773.847 249.949 874.688 231.04 951.999 274.108L722.59 565.303C662.584 500.269 657.338 397.84 715.593 323.895ZM133.509 245.5C149.377 245.5 162.227 258.358 162.227 274.2C162.226 290.042 149.377 302.9 133.509 302.9C132.808 302.9 132.114 302.873 131.426 302.824L131.39 302.804L131.36 302.82C116.496 301.722 104.791 289.321 104.791 274.2C104.791 258.358 117.64 245.5 133.509 245.5Z" stroke="white" stroke-width="57"/>
</svg>
