<svg width="235" height="135" viewBox="0 0 235 135" fill="none" xmlns="http://www.w3.org/2000/svg">
<path d="M171.28 92.0682C149.586 74.9826 146.128 43.1938 163.555 21.066C180.982 -1.06186 212.696 -5.14935 234.39 11.9363L171.28 92.0682Z" fill="#FEC52E"/>
<path d="M216.216 43C237.888 60.1145 241.304 91.9078 223.847 114.012C206.391 136.117 174.671 140.162 153 123.048L216.216 43Z" fill="#FEC52E"/>
<path d="M78.5 0C114.675 0 144 30.2208 144 67.5C144 104.779 114.675 135 78.5 135C78.3332 135 78.1665 134.997 78 134.996V0.00292969C78.1665 0.00164667 78.3332 0 78.5 0Z" fill="#FE8724"/>
<path d="M31 28C49.5199 38.5977 62 58.5485 62 81.415C62 104.282 49.5199 124.232 31 134.83C12.4801 124.232 0 104.282 0 81.415C0 58.5485 12.4801 38.5977 31 28Z" fill="#61B856"/>
<path d="M45 13.5C45 20.9558 38.9558 27 31.5 27C24.0442 27 18 20.9558 18 13.5C18 6.04416 24.0442 0 31.5 0C38.9558 0 45 6.04416 45 13.5Z" fill="#F1454B"/>
</svg>
